<mxfile modified="2021-02-01T10:27:40.198Z" host="app.diagrams.net" agent="5.0 (Windows NT 10.0; Win64; x64) AppleWebKit/537.36 (KHTML, like Gecko) Chrome/88.0.4324.96 Safari/537.36 Edg/88.0.705.56" etag="CpsIN_M6B_O_MAKsD_GE" version="14.2.9" type="github">
  <diagram id="DAjrYgmFwaXvOqBOgBSq" name="Page-2">
    <mxGraphModel dx="1483" dy="829" grid="1" gridSize="10" guides="1" tooltips="1" connect="1" arrows="1" fold="1" page="1" pageScale="1" pageWidth="850" pageHeight="1100" math="0" shadow="0">
      <root>
        <mxCell id="Cv5h2kr731wSIVPCW72T-0" />
        <mxCell id="Cv5h2kr731wSIVPCW72T-1" parent="Cv5h2kr731wSIVPCW72T-0" />
        <mxCell id="Cv5h2kr731wSIVPCW72T-42" value="" style="rounded=1;whiteSpace=wrap;html=1;" parent="Cv5h2kr731wSIVPCW72T-1" vertex="1">
          <mxGeometry x="500" y="580" width="270" height="420" as="geometry" />
        </mxCell>
        <mxCell id="Cv5h2kr731wSIVPCW72T-33" value="" style="rounded=1;whiteSpace=wrap;html=1;" parent="Cv5h2kr731wSIVPCW72T-1" vertex="1">
          <mxGeometry x="500" y="40" width="270" height="420" as="geometry" />
        </mxCell>
        <mxCell id="Cv5h2kr731wSIVPCW72T-19" value="" style="rounded=1;whiteSpace=wrap;html=1;" parent="Cv5h2kr731wSIVPCW72T-1" vertex="1">
          <mxGeometry x="40" y="580" width="280" height="420" as="geometry" />
        </mxCell>
        <mxCell id="Cv5h2kr731wSIVPCW72T-3" value="" style="rounded=1;whiteSpace=wrap;html=1;" parent="Cv5h2kr731wSIVPCW72T-1" vertex="1">
          <mxGeometry x="40" y="40" width="270" height="420" as="geometry" />
        </mxCell>
        <mxCell id="Cv5h2kr731wSIVPCW72T-4" value="" style="shape=image;html=1;verticalAlign=top;verticalLabelPosition=bottom;labelBackgroundColor=#ffffff;imageAspect=0;aspect=fixed;image=https://cdn4.iconfinder.com/data/icons/logos-and-brands/512/142_Github_logo_logos-128.png" parent="Cv5h2kr731wSIVPCW72T-1" vertex="1">
          <mxGeometry x="140" y="66" width="128" height="128" as="geometry" />
        </mxCell>
        <mxCell id="Cv5h2kr731wSIVPCW72T-5" value="Git repository" style="text;html=1;strokeColor=none;fillColor=none;align=center;verticalAlign=middle;whiteSpace=wrap;rounded=0;" parent="Cv5h2kr731wSIVPCW72T-1" vertex="1">
          <mxGeometry x="20" y="60" width="140" height="100" as="geometry" />
        </mxCell>
        <mxCell id="Cv5h2kr731wSIVPCW72T-6" value="" style="shape=internalStorage;whiteSpace=wrap;html=1;backgroundOutline=1;" parent="Cv5h2kr731wSIVPCW72T-1" vertex="1">
          <mxGeometry x="50" y="220" width="110" height="210" as="geometry" />
        </mxCell>
        <mxCell id="Cv5h2kr731wSIVPCW72T-7" value="" style="shape=internalStorage;whiteSpace=wrap;html=1;backgroundOutline=1;" parent="Cv5h2kr731wSIVPCW72T-1" vertex="1">
          <mxGeometry x="180" y="220" width="110" height="210" as="geometry" />
        </mxCell>
        <mxCell id="Cv5h2kr731wSIVPCW72T-58" style="edgeStyle=none;rounded=0;orthogonalLoop=1;jettySize=auto;html=1;exitX=0.25;exitY=0;exitDx=0;exitDy=0;entryX=0;entryY=0.25;entryDx=0;entryDy=0;" parent="Cv5h2kr731wSIVPCW72T-1" source="Cv5h2kr731wSIVPCW72T-8" target="Cv5h2kr731wSIVPCW72T-23" edge="1">
          <mxGeometry relative="1" as="geometry">
            <Array as="points">
              <mxPoint x="100" y="190" />
              <mxPoint x="10" y="190" />
              <mxPoint x="10" y="510" />
              <mxPoint x="10" y="813" />
            </Array>
          </mxGeometry>
        </mxCell>
        <mxCell id="Cv5h2kr731wSIVPCW72T-8" value="master" style="text;html=1;strokeColor=none;fillColor=none;align=center;verticalAlign=middle;whiteSpace=wrap;rounded=0;" parent="Cv5h2kr731wSIVPCW72T-1" vertex="1">
          <mxGeometry x="90" y="220" width="40" height="20" as="geometry" />
        </mxCell>
        <mxCell id="Cv5h2kr731wSIVPCW72T-59" style="edgeStyle=none;rounded=0;orthogonalLoop=1;jettySize=auto;html=1;exitX=0.5;exitY=0;exitDx=0;exitDy=0;" parent="Cv5h2kr731wSIVPCW72T-1" source="Cv5h2kr731wSIVPCW72T-9" edge="1">
          <mxGeometry relative="1" as="geometry">
            <mxPoint x="100" y="189.9999999999999" as="targetPoint" />
            <Array as="points">
              <mxPoint x="240" y="190" />
            </Array>
          </mxGeometry>
        </mxCell>
        <mxCell id="Cv5h2kr731wSIVPCW72T-9" value="dev" style="text;html=1;strokeColor=none;fillColor=none;align=center;verticalAlign=middle;whiteSpace=wrap;rounded=0;" parent="Cv5h2kr731wSIVPCW72T-1" vertex="1">
          <mxGeometry x="220" y="220" width="40" height="20" as="geometry" />
        </mxCell>
        <mxCell id="Cv5h2kr731wSIVPCW72T-14" value="" style="shape=note;whiteSpace=wrap;html=1;backgroundOutline=1;darkOpacity=0.05;" parent="Cv5h2kr731wSIVPCW72T-1" vertex="1">
          <mxGeometry x="80" y="245" width="70" height="70" as="geometry" />
        </mxCell>
        <mxCell id="Cv5h2kr731wSIVPCW72T-15" value="jenkins.file" style="text;html=1;strokeColor=none;fillColor=none;align=center;verticalAlign=middle;whiteSpace=wrap;rounded=0;" parent="Cv5h2kr731wSIVPCW72T-1" vertex="1">
          <mxGeometry x="95" y="285" width="40" height="20" as="geometry" />
        </mxCell>
        <mxCell id="Cv5h2kr731wSIVPCW72T-16" value="" style="shape=note;whiteSpace=wrap;html=1;backgroundOutline=1;darkOpacity=0.05;" parent="Cv5h2kr731wSIVPCW72T-1" vertex="1">
          <mxGeometry x="210" y="245" width="70" height="70" as="geometry" />
        </mxCell>
        <mxCell id="Cv5h2kr731wSIVPCW72T-17" value="jenkins.file" style="text;html=1;strokeColor=none;fillColor=none;align=center;verticalAlign=middle;whiteSpace=wrap;rounded=0;" parent="Cv5h2kr731wSIVPCW72T-1" vertex="1">
          <mxGeometry x="225" y="285" width="40" height="20" as="geometry" />
        </mxCell>
        <mxCell id="Cv5h2kr731wSIVPCW72T-20" value="" style="shape=image;html=1;verticalAlign=top;verticalLabelPosition=bottom;labelBackgroundColor=#ffffff;imageAspect=0;aspect=fixed;image=https://cdn4.iconfinder.com/data/icons/logos-brands-5/24/jenkins-128.png" parent="Cv5h2kr731wSIVPCW72T-1" vertex="1">
          <mxGeometry x="170" y="610" width="128" height="128" as="geometry" />
        </mxCell>
        <mxCell id="Cv5h2kr731wSIVPCW72T-21" value="jenkins pipelines" style="text;html=1;strokeColor=none;fillColor=none;align=center;verticalAlign=middle;whiteSpace=wrap;rounded=0;" parent="Cv5h2kr731wSIVPCW72T-1" vertex="1">
          <mxGeometry x="50" y="640" width="120" height="20" as="geometry" />
        </mxCell>
        <mxCell id="Cv5h2kr731wSIVPCW72T-23" value="" style="shape=internalStorage;whiteSpace=wrap;html=1;backgroundOutline=1;" parent="Cv5h2kr731wSIVPCW72T-1" vertex="1">
          <mxGeometry x="65" y="760" width="225" height="210" as="geometry" />
        </mxCell>
        <mxCell id="Cv5h2kr731wSIVPCW72T-24" value="multibranch pipeline" style="text;html=1;strokeColor=none;fillColor=none;align=center;verticalAlign=middle;whiteSpace=wrap;rounded=0;" parent="Cv5h2kr731wSIVPCW72T-1" vertex="1">
          <mxGeometry x="105" y="760" width="150" height="20" as="geometry" />
        </mxCell>
        <mxCell id="Cv5h2kr731wSIVPCW72T-25" value="" style="shape=note;whiteSpace=wrap;html=1;backgroundOutline=1;darkOpacity=0.05;" parent="Cv5h2kr731wSIVPCW72T-1" vertex="1">
          <mxGeometry x="80" y="330" width="70" height="70" as="geometry" />
        </mxCell>
        <mxCell id="Cv5h2kr731wSIVPCW72T-26" value="APP:master" style="text;html=1;strokeColor=none;fillColor=none;align=center;verticalAlign=middle;whiteSpace=wrap;rounded=0;" parent="Cv5h2kr731wSIVPCW72T-1" vertex="1">
          <mxGeometry x="70" y="370" width="90" height="20" as="geometry" />
        </mxCell>
        <mxCell id="Cv5h2kr731wSIVPCW72T-27" value="" style="shape=note;whiteSpace=wrap;html=1;backgroundOutline=1;darkOpacity=0.05;" parent="Cv5h2kr731wSIVPCW72T-1" vertex="1">
          <mxGeometry x="210" y="330" width="70" height="70" as="geometry" />
        </mxCell>
        <mxCell id="Cv5h2kr731wSIVPCW72T-28" value="APP:dev" style="text;html=1;strokeColor=none;fillColor=none;align=center;verticalAlign=middle;whiteSpace=wrap;rounded=0;" parent="Cv5h2kr731wSIVPCW72T-1" vertex="1">
          <mxGeometry x="200" y="370" width="90" height="20" as="geometry" />
        </mxCell>
        <mxCell id="Cv5h2kr731wSIVPCW72T-60" style="edgeStyle=none;rounded=0;orthogonalLoop=1;jettySize=auto;html=1;exitX=0;exitY=0;exitDx=0;exitDy=0;exitPerimeter=0;entryX=-0.008;entryY=0.289;entryDx=0;entryDy=0;entryPerimeter=0;" parent="Cv5h2kr731wSIVPCW72T-1" source="Cv5h2kr731wSIVPCW72T-29" target="Cv5h2kr731wSIVPCW72T-36" edge="1">
          <mxGeometry relative="1" as="geometry">
            <Array as="points">
              <mxPoint x="100" y="520" />
              <mxPoint x="400" y="520" />
              <mxPoint x="400" y="280" />
            </Array>
          </mxGeometry>
        </mxCell>
        <mxCell id="Cv5h2kr731wSIVPCW72T-29" value="" style="shape=note;whiteSpace=wrap;html=1;backgroundOutline=1;darkOpacity=0.05;" parent="Cv5h2kr731wSIVPCW72T-1" vertex="1">
          <mxGeometry x="100" y="785" width="70" height="70" as="geometry" />
        </mxCell>
        <mxCell id="Cv5h2kr731wSIVPCW72T-30" value="build/push" style="text;html=1;strokeColor=none;fillColor=none;align=center;verticalAlign=middle;whiteSpace=wrap;rounded=0;" parent="Cv5h2kr731wSIVPCW72T-1" vertex="1">
          <mxGeometry x="115" y="825" width="40" height="20" as="geometry" />
        </mxCell>
        <mxCell id="Cv5h2kr731wSIVPCW72T-62" style="edgeStyle=none;rounded=0;orthogonalLoop=1;jettySize=auto;html=1;exitX=1;exitY=1;exitDx=0;exitDy=0;exitPerimeter=0;entryX=0.008;entryY=0.455;entryDx=0;entryDy=0;entryPerimeter=0;" parent="Cv5h2kr731wSIVPCW72T-1" source="Cv5h2kr731wSIVPCW72T-31" target="Cv5h2kr731wSIVPCW72T-45" edge="1">
          <mxGeometry relative="1" as="geometry" />
        </mxCell>
        <mxCell id="Cv5h2kr731wSIVPCW72T-31" value="" style="shape=note;whiteSpace=wrap;html=1;backgroundOutline=1;darkOpacity=0.05;" parent="Cv5h2kr731wSIVPCW72T-1" vertex="1">
          <mxGeometry x="199" y="785" width="70" height="70" as="geometry" />
        </mxCell>
        <mxCell id="Cv5h2kr731wSIVPCW72T-32" value="deploy" style="text;html=1;strokeColor=none;fillColor=none;align=center;verticalAlign=middle;whiteSpace=wrap;rounded=0;" parent="Cv5h2kr731wSIVPCW72T-1" vertex="1">
          <mxGeometry x="214" y="825" width="40" height="20" as="geometry" />
        </mxCell>
        <mxCell id="Cv5h2kr731wSIVPCW72T-34" value="" style="shape=image;html=1;verticalAlign=top;verticalLabelPosition=bottom;labelBackgroundColor=#ffffff;imageAspect=0;aspect=fixed;image=https://cdn1.iconfinder.com/data/icons/social-media-2106/24/social_media_social_media_logo_docker-128.png" parent="Cv5h2kr731wSIVPCW72T-1" vertex="1">
          <mxGeometry x="620" y="70" width="128" height="128" as="geometry" />
        </mxCell>
        <mxCell id="Cv5h2kr731wSIVPCW72T-35" value="dockerhub" style="text;html=1;strokeColor=none;fillColor=none;align=center;verticalAlign=middle;whiteSpace=wrap;rounded=0;" parent="Cv5h2kr731wSIVPCW72T-1" vertex="1">
          <mxGeometry x="510" y="110" width="120" height="20" as="geometry" />
        </mxCell>
        <mxCell id="Cv5h2kr731wSIVPCW72T-61" style="edgeStyle=none;rounded=0;orthogonalLoop=1;jettySize=auto;html=1;exitX=0;exitY=0.75;exitDx=0;exitDy=0;entryX=0;entryY=0;entryDx=70;entryDy=30;entryPerimeter=0;" parent="Cv5h2kr731wSIVPCW72T-1" source="Cv5h2kr731wSIVPCW72T-36" target="Cv5h2kr731wSIVPCW72T-31" edge="1">
          <mxGeometry relative="1" as="geometry">
            <Array as="points">
              <mxPoint x="440" y="378" />
              <mxPoint x="440" y="815" />
            </Array>
          </mxGeometry>
        </mxCell>
        <mxCell id="Cv5h2kr731wSIVPCW72T-36" value="" style="shape=internalStorage;whiteSpace=wrap;html=1;backgroundOutline=1;" parent="Cv5h2kr731wSIVPCW72T-1" vertex="1">
          <mxGeometry x="523" y="220" width="225" height="210" as="geometry" />
        </mxCell>
        <mxCell id="Cv5h2kr731wSIVPCW72T-37" value="" style="shape=cube;whiteSpace=wrap;html=1;boundedLbl=1;backgroundOutline=1;darkOpacity=0.05;darkOpacity2=0.1;" parent="Cv5h2kr731wSIVPCW72T-1" vertex="1">
          <mxGeometry x="560" y="250" width="120" height="70" as="geometry" />
        </mxCell>
        <mxCell id="Cv5h2kr731wSIVPCW72T-38" value="APP:master" style="text;html=1;strokeColor=none;fillColor=none;align=center;verticalAlign=middle;whiteSpace=wrap;rounded=0;" parent="Cv5h2kr731wSIVPCW72T-1" vertex="1">
          <mxGeometry x="550" y="285" width="160" height="20" as="geometry" />
        </mxCell>
        <mxCell id="Cv5h2kr731wSIVPCW72T-39" value="" style="shape=cube;whiteSpace=wrap;html=1;boundedLbl=1;backgroundOutline=1;darkOpacity=0.05;darkOpacity2=0.1;" parent="Cv5h2kr731wSIVPCW72T-1" vertex="1">
          <mxGeometry x="560" y="330" width="120" height="70" as="geometry" />
        </mxCell>
        <mxCell id="Cv5h2kr731wSIVPCW72T-40" value="APP:dev" style="text;html=1;strokeColor=none;fillColor=none;align=center;verticalAlign=middle;whiteSpace=wrap;rounded=0;" parent="Cv5h2kr731wSIVPCW72T-1" vertex="1">
          <mxGeometry x="550" y="365" width="160" height="20" as="geometry" />
        </mxCell>
        <mxCell id="Cv5h2kr731wSIVPCW72T-41" value="images" style="text;html=1;strokeColor=none;fillColor=none;align=center;verticalAlign=middle;whiteSpace=wrap;rounded=0;" parent="Cv5h2kr731wSIVPCW72T-1" vertex="1">
          <mxGeometry x="555" y="220" width="150" height="20" as="geometry" />
        </mxCell>
        <mxCell id="Cv5h2kr731wSIVPCW72T-43" value="" style="aspect=fixed;html=1;points=[];align=center;image;fontSize=12;image=img/lib/mscae/Kubernetes.svg;" parent="Cv5h2kr731wSIVPCW72T-1" vertex="1">
          <mxGeometry x="623.3399999999999" y="610" width="133.33" height="128" as="geometry" />
        </mxCell>
        <mxCell id="Cv5h2kr731wSIVPCW72T-44" value="k8s cluster" style="text;html=1;strokeColor=none;fillColor=none;align=center;verticalAlign=middle;whiteSpace=wrap;rounded=0;" parent="Cv5h2kr731wSIVPCW72T-1" vertex="1">
          <mxGeometry x="515" y="640" width="100" height="20" as="geometry" />
        </mxCell>
        <mxCell id="Cv5h2kr731wSIVPCW72T-45" value="" style="shape=internalStorage;whiteSpace=wrap;html=1;backgroundOutline=1;" parent="Cv5h2kr731wSIVPCW72T-1" vertex="1">
          <mxGeometry x="523" y="760" width="225" height="210" as="geometry" />
        </mxCell>
        <mxCell id="Cv5h2kr731wSIVPCW72T-46" value="namespaces" style="text;html=1;strokeColor=none;fillColor=none;align=center;verticalAlign=middle;whiteSpace=wrap;rounded=0;" parent="Cv5h2kr731wSIVPCW72T-1" vertex="1">
          <mxGeometry x="570" y="760" width="130" height="20" as="geometry" />
        </mxCell>
        <mxCell id="Cv5h2kr731wSIVPCW72T-48" value="" style="shape=process;whiteSpace=wrap;html=1;backgroundOutline=1;" parent="Cv5h2kr731wSIVPCW72T-1" vertex="1">
          <mxGeometry x="555" y="790" width="185" height="60" as="geometry" />
        </mxCell>
        <mxCell id="Cv5h2kr731wSIVPCW72T-49" value="master" style="text;html=1;strokeColor=none;fillColor=none;align=center;verticalAlign=middle;whiteSpace=wrap;rounded=0;" parent="Cv5h2kr731wSIVPCW72T-1" vertex="1">
          <mxGeometry x="556" y="790" width="80" height="20" as="geometry" />
        </mxCell>
        <mxCell id="Cv5h2kr731wSIVPCW72T-50" value="" style="shape=process;whiteSpace=wrap;html=1;backgroundOutline=1;" parent="Cv5h2kr731wSIVPCW72T-1" vertex="1">
          <mxGeometry x="555" y="870" width="185" height="60" as="geometry" />
        </mxCell>
        <mxCell id="Cv5h2kr731wSIVPCW72T-51" value="dev" style="text;html=1;strokeColor=none;fillColor=none;align=center;verticalAlign=middle;whiteSpace=wrap;rounded=0;" parent="Cv5h2kr731wSIVPCW72T-1" vertex="1">
          <mxGeometry x="553" y="870" width="80" height="20" as="geometry" />
        </mxCell>
        <mxCell id="Cv5h2kr731wSIVPCW72T-52" value="" style="shape=cube;whiteSpace=wrap;html=1;boundedLbl=1;backgroundOutline=1;darkOpacity=0.05;darkOpacity2=0.1;" parent="Cv5h2kr731wSIVPCW72T-1" vertex="1">
          <mxGeometry x="618.67" y="795" width="100" height="50" as="geometry" />
        </mxCell>
        <mxCell id="Cv5h2kr731wSIVPCW72T-53" value="APP:master" style="text;html=1;strokeColor=none;fillColor=none;align=center;verticalAlign=middle;whiteSpace=wrap;rounded=0;" parent="Cv5h2kr731wSIVPCW72T-1" vertex="1">
          <mxGeometry x="596.67" y="815" width="160" height="30" as="geometry" />
        </mxCell>
        <mxCell id="Cv5h2kr731wSIVPCW72T-54" value="" style="shape=cube;whiteSpace=wrap;html=1;boundedLbl=1;backgroundOutline=1;darkOpacity=0.05;darkOpacity2=0.1;" parent="Cv5h2kr731wSIVPCW72T-1" vertex="1">
          <mxGeometry x="618.67" y="875" width="100" height="50" as="geometry" />
        </mxCell>
        <mxCell id="Cv5h2kr731wSIVPCW72T-55" value="APP:dev" style="text;html=1;strokeColor=none;fillColor=none;align=center;verticalAlign=middle;whiteSpace=wrap;rounded=0;" parent="Cv5h2kr731wSIVPCW72T-1" vertex="1">
          <mxGeometry x="596.67" y="900" width="160" height="25" as="geometry" />
        </mxCell>
      </root>
    </mxGraphModel>
  </diagram>
</mxfile>
